<mxfile host="app.diagrams.net" agent="Mozilla/5.0 (Windows NT 10.0; Win64; x64) AppleWebKit/537.36 (KHTML, like Gecko) Chrome/131.0.0.0 Safari/537.36 Edg/131.0.0.0" version="25.0.3" pages="3">
  <diagram id="C5RBs43oDa-KdzZeNtuy" name="Page-1">
    <mxGraphModel dx="1617" dy="948" grid="0" gridSize="10" guides="1" tooltips="1" connect="1" arrows="1" fold="1" page="1" pageScale="1" pageWidth="827" pageHeight="1169" math="0" shadow="0">
      <root>
        <mxCell id="WIyWlLk6GJQsqaUBKTNV-0" />
        <mxCell id="WIyWlLk6GJQsqaUBKTNV-1" parent="WIyWlLk6GJQsqaUBKTNV-0" />
        <mxCell id="kI7MQV0JQG4fyMIDOfCK-32" style="edgeStyle=none;curved=1;rounded=0;orthogonalLoop=1;jettySize=auto;html=1;fontSize=12;startSize=8;endSize=8;" edge="1" parent="WIyWlLk6GJQsqaUBKTNV-1" source="kI7MQV0JQG4fyMIDOfCK-27" target="kI7MQV0JQG4fyMIDOfCK-29">
          <mxGeometry relative="1" as="geometry" />
        </mxCell>
        <mxCell id="kI7MQV0JQG4fyMIDOfCK-34" value="查询" style="edgeLabel;html=1;align=center;verticalAlign=middle;resizable=0;points=[];fontSize=12;" vertex="1" connectable="0" parent="kI7MQV0JQG4fyMIDOfCK-32">
          <mxGeometry y="-3" relative="1" as="geometry">
            <mxPoint as="offset" />
          </mxGeometry>
        </mxCell>
        <mxCell id="kI7MQV0JQG4fyMIDOfCK-27" value="学生" style="rounded=0;whiteSpace=wrap;html=1;" vertex="1" parent="WIyWlLk6GJQsqaUBKTNV-1">
          <mxGeometry x="70" y="30" width="90" height="30" as="geometry" />
        </mxCell>
        <mxCell id="kI7MQV0JQG4fyMIDOfCK-38" style="edgeStyle=none;curved=1;rounded=0;orthogonalLoop=1;jettySize=auto;html=1;fontSize=12;startSize=8;endSize=8;" edge="1" parent="WIyWlLk6GJQsqaUBKTNV-1" source="kI7MQV0JQG4fyMIDOfCK-28" target="kI7MQV0JQG4fyMIDOfCK-29">
          <mxGeometry relative="1" as="geometry" />
        </mxCell>
        <mxCell id="kI7MQV0JQG4fyMIDOfCK-39" value="管理" style="edgeLabel;html=1;align=center;verticalAlign=middle;resizable=0;points=[];fontSize=12;" vertex="1" connectable="0" parent="kI7MQV0JQG4fyMIDOfCK-38">
          <mxGeometry x="-0.0799" y="4" relative="1" as="geometry">
            <mxPoint as="offset" />
          </mxGeometry>
        </mxCell>
        <mxCell id="kI7MQV0JQG4fyMIDOfCK-101" value="Text" style="edgeLabel;html=1;align=center;verticalAlign=middle;resizable=0;points=[];fontSize=12;" vertex="1" connectable="0" parent="kI7MQV0JQG4fyMIDOfCK-38">
          <mxGeometry x="-0.0511" y="4" relative="1" as="geometry">
            <mxPoint as="offset" />
          </mxGeometry>
        </mxCell>
        <mxCell id="kI7MQV0JQG4fyMIDOfCK-28" value="教师/管理人员" style="rounded=0;whiteSpace=wrap;html=1;" vertex="1" parent="WIyWlLk6GJQsqaUBKTNV-1">
          <mxGeometry x="70" y="100" width="90" height="30" as="geometry" />
        </mxCell>
        <mxCell id="kI7MQV0JQG4fyMIDOfCK-40" style="edgeStyle=none;curved=1;rounded=0;orthogonalLoop=1;jettySize=auto;html=1;entryX=0;entryY=0.5;entryDx=0;entryDy=0;fontSize=12;startSize=8;endSize=8;" edge="1" parent="WIyWlLk6GJQsqaUBKTNV-1" source="kI7MQV0JQG4fyMIDOfCK-29" target="kI7MQV0JQG4fyMIDOfCK-30">
          <mxGeometry relative="1" as="geometry" />
        </mxCell>
        <mxCell id="kI7MQV0JQG4fyMIDOfCK-42" value="&lt;pre style=&quot;-webkit-font-smoothing: antialiased; box-sizing: border-box; -webkit-tap-highlight-color: rgba(0, 0, 0, 0); overflow-wrap: normal; background: var(--color-bg-page); word-break: normal; hyphens: none; line-height: 1.5; tab-size: 4; margin-top: 0px; margin-bottom: 0px; overflow: auto; border-radius: 6px; padding: 0px; overflow-anchor: auto; text-align: start;&quot; class=&quot;language-mermaid light-scrollbar-FDfgd0&quot;&gt;&lt;font face=&quot;Menlo, Monaco, Consolas, Courier New, monospace&quot;&gt;&lt;span style=&quot;font-size: 14px;&quot;&gt;生成&lt;/span&gt;&lt;/font&gt;&lt;/pre&gt;" style="edgeLabel;html=1;align=center;verticalAlign=middle;resizable=0;points=[];fontSize=12;" vertex="1" connectable="0" parent="kI7MQV0JQG4fyMIDOfCK-40">
          <mxGeometry x="0.0006" y="1" relative="1" as="geometry">
            <mxPoint as="offset" />
          </mxGeometry>
        </mxCell>
        <mxCell id="kI7MQV0JQG4fyMIDOfCK-29" value="学生体质健康管理系统" style="rounded=1;whiteSpace=wrap;html=1;" vertex="1" parent="WIyWlLk6GJQsqaUBKTNV-1">
          <mxGeometry x="290" y="20" width="140" height="130" as="geometry" />
        </mxCell>
        <mxCell id="kI7MQV0JQG4fyMIDOfCK-30" value="体质测试项目及结果" style="rounded=0;whiteSpace=wrap;html=1;" vertex="1" parent="WIyWlLk6GJQsqaUBKTNV-1">
          <mxGeometry x="529" y="55" width="120" height="60" as="geometry" />
        </mxCell>
        <mxCell id="kI7MQV0JQG4fyMIDOfCK-87" style="edgeStyle=none;curved=1;rounded=0;orthogonalLoop=1;jettySize=auto;html=1;fontSize=12;startSize=8;endSize=8;" edge="1" parent="WIyWlLk6GJQsqaUBKTNV-1" source="kI7MQV0JQG4fyMIDOfCK-52" target="kI7MQV0JQG4fyMIDOfCK-86">
          <mxGeometry relative="1" as="geometry" />
        </mxCell>
        <mxCell id="kI7MQV0JQG4fyMIDOfCK-52" value="学生体质健康管理系统" style="rounded=1;whiteSpace=wrap;html=1;" vertex="1" parent="WIyWlLk6GJQsqaUBKTNV-1">
          <mxGeometry x="165" y="670" width="140" height="90" as="geometry" />
        </mxCell>
        <mxCell id="kI7MQV0JQG4fyMIDOfCK-75" style="edgeStyle=none;curved=1;rounded=0;orthogonalLoop=1;jettySize=auto;html=1;entryX=0.5;entryY=1;entryDx=0;entryDy=0;fontSize=12;startSize=8;endSize=8;" edge="1" parent="WIyWlLk6GJQsqaUBKTNV-1" target="kI7MQV0JQG4fyMIDOfCK-74">
          <mxGeometry relative="1" as="geometry">
            <mxPoint x="198" y="1080" as="sourcePoint" />
          </mxGeometry>
        </mxCell>
        <mxCell id="kI7MQV0JQG4fyMIDOfCK-63" value="学生" style="rounded=0;whiteSpace=wrap;html=1;" vertex="1" parent="WIyWlLk6GJQsqaUBKTNV-1">
          <mxGeometry x="157.5" y="1060" width="75" height="30" as="geometry" />
        </mxCell>
        <mxCell id="kI7MQV0JQG4fyMIDOfCK-98" style="edgeStyle=none;curved=1;rounded=0;orthogonalLoop=1;jettySize=auto;html=1;fontSize=12;startSize=8;endSize=8;" edge="1" parent="WIyWlLk6GJQsqaUBKTNV-1" source="kI7MQV0JQG4fyMIDOfCK-64" target="kI7MQV0JQG4fyMIDOfCK-95">
          <mxGeometry relative="1" as="geometry" />
        </mxCell>
        <mxCell id="kI7MQV0JQG4fyMIDOfCK-64" value="教师/管理人员" style="rounded=0;whiteSpace=wrap;html=1;" vertex="1" parent="WIyWlLk6GJQsqaUBKTNV-1">
          <mxGeometry x="257.5" y="390" width="90" height="30" as="geometry" />
        </mxCell>
        <mxCell id="kI7MQV0JQG4fyMIDOfCK-79" style="edgeStyle=none;curved=1;rounded=0;orthogonalLoop=1;jettySize=auto;html=1;fontSize=12;startSize=8;endSize=8;" edge="1" parent="WIyWlLk6GJQsqaUBKTNV-1" source="kI7MQV0JQG4fyMIDOfCK-68" target="kI7MQV0JQG4fyMIDOfCK-52">
          <mxGeometry relative="1" as="geometry" />
        </mxCell>
        <mxCell id="kI7MQV0JQG4fyMIDOfCK-68" value="学生信息" style="rounded=0;whiteSpace=wrap;html=1;" vertex="1" parent="WIyWlLk6GJQsqaUBKTNV-1">
          <mxGeometry x="20" y="830" width="90" height="30" as="geometry" />
        </mxCell>
        <mxCell id="kI7MQV0JQG4fyMIDOfCK-80" style="edgeStyle=none;curved=1;rounded=0;orthogonalLoop=1;jettySize=auto;html=1;entryX=0.5;entryY=1;entryDx=0;entryDy=0;fontSize=12;startSize=8;endSize=8;" edge="1" parent="WIyWlLk6GJQsqaUBKTNV-1" source="kI7MQV0JQG4fyMIDOfCK-69" target="kI7MQV0JQG4fyMIDOfCK-52">
          <mxGeometry relative="1" as="geometry" />
        </mxCell>
        <mxCell id="kI7MQV0JQG4fyMIDOfCK-69" value="班级信息" style="rounded=0;whiteSpace=wrap;html=1;" vertex="1" parent="WIyWlLk6GJQsqaUBKTNV-1">
          <mxGeometry x="140" y="830" width="90" height="30" as="geometry" />
        </mxCell>
        <mxCell id="kI7MQV0JQG4fyMIDOfCK-81" style="edgeStyle=none;curved=1;rounded=0;orthogonalLoop=1;jettySize=auto;html=1;fontSize=12;startSize=8;endSize=8;" edge="1" parent="WIyWlLk6GJQsqaUBKTNV-1" source="kI7MQV0JQG4fyMIDOfCK-70" target="kI7MQV0JQG4fyMIDOfCK-52">
          <mxGeometry relative="1" as="geometry" />
        </mxCell>
        <mxCell id="kI7MQV0JQG4fyMIDOfCK-70" value="学校信息" style="rounded=0;whiteSpace=wrap;html=1;" vertex="1" parent="WIyWlLk6GJQsqaUBKTNV-1">
          <mxGeometry x="260" y="830" width="90" height="30" as="geometry" />
        </mxCell>
        <mxCell id="kI7MQV0JQG4fyMIDOfCK-71" value="体质测试项目" style="rounded=0;whiteSpace=wrap;html=1;" vertex="1" parent="WIyWlLk6GJQsqaUBKTNV-1">
          <mxGeometry x="374" y="830" width="80" height="30" as="geometry" />
        </mxCell>
        <mxCell id="kI7MQV0JQG4fyMIDOfCK-77" style="edgeStyle=none;curved=1;rounded=0;orthogonalLoop=1;jettySize=auto;html=1;fontSize=12;startSize=8;endSize=8;" edge="1" parent="WIyWlLk6GJQsqaUBKTNV-1" source="kI7MQV0JQG4fyMIDOfCK-74" target="kI7MQV0JQG4fyMIDOfCK-69">
          <mxGeometry relative="1" as="geometry" />
        </mxCell>
        <mxCell id="kI7MQV0JQG4fyMIDOfCK-78" style="edgeStyle=none;curved=1;rounded=0;orthogonalLoop=1;jettySize=auto;html=1;fontSize=12;startSize=8;endSize=8;" edge="1" parent="WIyWlLk6GJQsqaUBKTNV-1" source="kI7MQV0JQG4fyMIDOfCK-74" target="kI7MQV0JQG4fyMIDOfCK-70">
          <mxGeometry relative="1" as="geometry" />
        </mxCell>
        <mxCell id="kI7MQV0JQG4fyMIDOfCK-74" value="录入" style="rhombus;whiteSpace=wrap;html=1;" vertex="1" parent="WIyWlLk6GJQsqaUBKTNV-1">
          <mxGeometry x="157.5" y="960" width="80" height="60" as="geometry" />
        </mxCell>
        <mxCell id="kI7MQV0JQG4fyMIDOfCK-76" style="edgeStyle=none;curved=1;rounded=0;orthogonalLoop=1;jettySize=auto;html=1;entryX=0.67;entryY=0.956;entryDx=0;entryDy=0;entryPerimeter=0;fontSize=12;startSize=8;endSize=8;" edge="1" parent="WIyWlLk6GJQsqaUBKTNV-1" source="kI7MQV0JQG4fyMIDOfCK-74" target="kI7MQV0JQG4fyMIDOfCK-68">
          <mxGeometry relative="1" as="geometry" />
        </mxCell>
        <mxCell id="kI7MQV0JQG4fyMIDOfCK-82" style="edgeStyle=none;curved=1;rounded=0;orthogonalLoop=1;jettySize=auto;html=1;entryX=0.867;entryY=0.978;entryDx=0;entryDy=0;entryPerimeter=0;fontSize=12;startSize=8;endSize=8;" edge="1" parent="WIyWlLk6GJQsqaUBKTNV-1" source="kI7MQV0JQG4fyMIDOfCK-71" target="kI7MQV0JQG4fyMIDOfCK-52">
          <mxGeometry relative="1" as="geometry" />
        </mxCell>
        <mxCell id="kI7MQV0JQG4fyMIDOfCK-83" value="体质测试结果" style="rounded=0;whiteSpace=wrap;html=1;" vertex="1" parent="WIyWlLk6GJQsqaUBKTNV-1">
          <mxGeometry x="100" y="520" width="120" height="40" as="geometry" />
        </mxCell>
        <mxCell id="kI7MQV0JQG4fyMIDOfCK-84" value="学生体质健康报告" style="rounded=0;whiteSpace=wrap;html=1;" vertex="1" parent="WIyWlLk6GJQsqaUBKTNV-1">
          <mxGeometry x="254" y="520" width="120" height="40" as="geometry" />
        </mxCell>
        <mxCell id="kI7MQV0JQG4fyMIDOfCK-88" style="edgeStyle=none;curved=1;rounded=0;orthogonalLoop=1;jettySize=auto;html=1;fontSize=12;startSize=8;endSize=8;" edge="1" parent="WIyWlLk6GJQsqaUBKTNV-1" source="kI7MQV0JQG4fyMIDOfCK-86" target="kI7MQV0JQG4fyMIDOfCK-84">
          <mxGeometry relative="1" as="geometry" />
        </mxCell>
        <mxCell id="kI7MQV0JQG4fyMIDOfCK-91" style="edgeStyle=none;curved=1;rounded=0;orthogonalLoop=1;jettySize=auto;html=1;fontSize=12;startSize=8;endSize=8;" edge="1" parent="WIyWlLk6GJQsqaUBKTNV-1" source="kI7MQV0JQG4fyMIDOfCK-86" target="kI7MQV0JQG4fyMIDOfCK-83">
          <mxGeometry relative="1" as="geometry" />
        </mxCell>
        <mxCell id="kI7MQV0JQG4fyMIDOfCK-86" value="生成" style="strokeWidth=2;html=1;shape=mxgraph.flowchart.decision;whiteSpace=wrap;" vertex="1" parent="WIyWlLk6GJQsqaUBKTNV-1">
          <mxGeometry x="185" y="585" width="100" height="50" as="geometry" />
        </mxCell>
        <mxCell id="kI7MQV0JQG4fyMIDOfCK-96" style="edgeStyle=none;curved=1;rounded=0;orthogonalLoop=1;jettySize=auto;html=1;fontSize=12;startSize=8;endSize=8;" edge="1" parent="WIyWlLk6GJQsqaUBKTNV-1" source="kI7MQV0JQG4fyMIDOfCK-93" target="kI7MQV0JQG4fyMIDOfCK-95">
          <mxGeometry relative="1" as="geometry" />
        </mxCell>
        <mxCell id="kI7MQV0JQG4fyMIDOfCK-93" value="学生" style="rounded=0;whiteSpace=wrap;html=1;" vertex="1" parent="WIyWlLk6GJQsqaUBKTNV-1">
          <mxGeometry x="90" y="390" width="102.5" height="30" as="geometry" />
        </mxCell>
        <mxCell id="kI7MQV0JQG4fyMIDOfCK-99" style="edgeStyle=none;curved=1;rounded=0;orthogonalLoop=1;jettySize=auto;html=1;fontSize=12;startSize=8;endSize=8;" edge="1" parent="WIyWlLk6GJQsqaUBKTNV-1" source="kI7MQV0JQG4fyMIDOfCK-95" target="kI7MQV0JQG4fyMIDOfCK-83">
          <mxGeometry relative="1" as="geometry" />
        </mxCell>
        <mxCell id="kI7MQV0JQG4fyMIDOfCK-100" style="edgeStyle=none;curved=1;rounded=0;orthogonalLoop=1;jettySize=auto;html=1;fontSize=12;startSize=8;endSize=8;" edge="1" parent="WIyWlLk6GJQsqaUBKTNV-1" source="kI7MQV0JQG4fyMIDOfCK-95" target="kI7MQV0JQG4fyMIDOfCK-84">
          <mxGeometry relative="1" as="geometry" />
        </mxCell>
        <mxCell id="kI7MQV0JQG4fyMIDOfCK-95" value="查询" style="rhombus;whiteSpace=wrap;html=1;" vertex="1" parent="WIyWlLk6GJQsqaUBKTNV-1">
          <mxGeometry x="192.5" y="440" width="80" height="50" as="geometry" />
        </mxCell>
        <mxCell id="kI7MQV0JQG4fyMIDOfCK-97" style="edgeStyle=none;curved=1;rounded=0;orthogonalLoop=1;jettySize=auto;html=1;exitX=1;exitY=0;exitDx=0;exitDy=0;fontSize=12;startSize=8;endSize=8;" edge="1" parent="WIyWlLk6GJQsqaUBKTNV-1" source="kI7MQV0JQG4fyMIDOfCK-95" target="kI7MQV0JQG4fyMIDOfCK-95">
          <mxGeometry relative="1" as="geometry" />
        </mxCell>
      </root>
    </mxGraphModel>
  </diagram>
  <diagram id="h0uCblzQFOKEcSwXZRhB" name="第 2 页">
    <mxGraphModel dx="2216" dy="1689" grid="0" gridSize="10" guides="1" tooltips="1" connect="1" arrows="1" fold="1" page="0" pageScale="1" pageWidth="827" pageHeight="1169" math="0" shadow="0">
      <root>
        <mxCell id="0" />
        <mxCell id="1" parent="0" />
        <mxCell id="7sUv-lEZbpwKmYyYSgff-18" value="&lt;span style=&quot;color: rgb(50, 50, 50); font-family: &amp;quot;Microsoft YaHei&amp;quot;, 微软雅黑, Arial; font-size: 13px; background-color: rgba(255, 255, 255, 0.01);&quot;&gt;Tuition&lt;/span&gt;" style="swimlane;fontStyle=1;align=center;verticalAlign=top;childLayout=stackLayout;horizontal=1;startSize=26;horizontalStack=0;resizeParent=1;resizeParentMax=0;resizeLast=0;collapsible=1;marginBottom=0;whiteSpace=wrap;html=1;" vertex="1" parent="1">
          <mxGeometry x="392" y="-518" width="160" height="141" as="geometry" />
        </mxCell>
        <mxCell id="7sUv-lEZbpwKmYyYSgff-19" value="&lt;span style=&quot;color: rgb(50, 50, 50); font-family: &amp;quot;Microsoft YaHei&amp;quot;, 微软雅黑, Arial; font-size: 13px; background-color: rgba(255, 255, 255, 0.01);&quot;&gt;- firstName: String;&lt;/span&gt;&lt;br style=&quot;color: rgb(50, 50, 50); font-family: &amp;quot;Microsoft YaHei&amp;quot;, 微软雅黑, Arial; font-size: 13px;&quot;&gt;&lt;span style=&quot;color: rgb(50, 50, 50); font-family: &amp;quot;Microsoft YaHei&amp;quot;, 微软雅黑, Arial; font-size: 13px; background-color: rgba(255, 255, 255, 0.01);&quot;&gt;- lastName: String;&lt;/span&gt;&lt;br style=&quot;color: rgb(50, 50, 50); font-family: &amp;quot;Microsoft YaHei&amp;quot;, 微软雅黑, Arial; font-size: 13px;&quot;&gt;&lt;span style=&quot;color: rgb(50, 50, 50); font-family: &amp;quot;Microsoft YaHei&amp;quot;, 微软雅黑, Arial; font-size: 13px; background-color: rgba(255, 255, 255, 0.01);&quot;&gt;- studNum: String;&lt;/span&gt;" style="text;strokeColor=none;fillColor=none;align=left;verticalAlign=top;spacingLeft=4;spacingRight=4;overflow=hidden;rotatable=0;points=[[0,0.5],[1,0.5]];portConstraint=eastwest;whiteSpace=wrap;html=1;" vertex="1" parent="7sUv-lEZbpwKmYyYSgff-18">
          <mxGeometry y="26" width="160" height="61" as="geometry" />
        </mxCell>
        <mxCell id="7sUv-lEZbpwKmYyYSgff-20" value="" style="line;strokeWidth=1;fillColor=none;align=left;verticalAlign=middle;spacingTop=-1;spacingLeft=3;spacingRight=3;rotatable=0;labelPosition=right;points=[];portConstraint=eastwest;strokeColor=inherit;" vertex="1" parent="7sUv-lEZbpwKmYyYSgff-18">
          <mxGeometry y="87" width="160" height="8" as="geometry" />
        </mxCell>
        <mxCell id="7sUv-lEZbpwKmYyYSgff-21" value="&lt;span style=&quot;color: rgb(50, 50, 50); font-family: &amp;quot;Microsoft YaHei&amp;quot;, 微软雅黑, Arial; font-size: 13px; background-color: rgba(255, 255, 255, 0.01);&quot;&gt;+&lt;/span&gt;&lt;span style=&quot;font-family: Arial; font-size: 9pt; background-color: initial;&quot;&gt;getStudentTuitionInfo&lt;/span&gt;&lt;span style=&quot;background-color: rgba(255, 255, 255, 0.01); color: rgb(50, 50, 50); font-family: &amp;quot;Microsoft YaHei&amp;quot;, 微软雅黑, Arial; font-size: 13px;&quot;&gt;()：ArrayList&lt;/span&gt;" style="text;strokeColor=none;fillColor=none;align=left;verticalAlign=top;spacingLeft=4;spacingRight=4;overflow=hidden;rotatable=0;points=[[0,0.5],[1,0.5]];portConstraint=eastwest;whiteSpace=wrap;html=1;" vertex="1" parent="7sUv-lEZbpwKmYyYSgff-18">
          <mxGeometry y="95" width="160" height="46" as="geometry" />
        </mxCell>
        <mxCell id="7sUv-lEZbpwKmYyYSgff-31" style="edgeStyle=none;curved=1;rounded=0;orthogonalLoop=1;jettySize=auto;html=1;fontSize=12;startSize=8;endSize=8;" edge="1" parent="1" source="7sUv-lEZbpwKmYyYSgff-22" target="7sUv-lEZbpwKmYyYSgff-26">
          <mxGeometry relative="1" as="geometry" />
        </mxCell>
        <mxCell id="7sUv-lEZbpwKmYyYSgff-22" value="&lt;span style=&quot;color: rgb(50, 50, 50); font-family: &amp;quot;Microsoft YaHei&amp;quot;, 微软雅黑, Arial; font-size: 13px; background-color: rgba(255, 255, 255, 0.01);&quot;&gt;Award&lt;/span&gt;" style="swimlane;fontStyle=1;align=center;verticalAlign=top;childLayout=stackLayout;horizontal=1;startSize=26;horizontalStack=0;resizeParent=1;resizeParentMax=0;resizeLast=0;collapsible=1;marginBottom=0;whiteSpace=wrap;html=1;" vertex="1" parent="1">
          <mxGeometry x="-106" y="-167" width="160" height="147" as="geometry" />
        </mxCell>
        <mxCell id="7sUv-lEZbpwKmYyYSgff-23" value="&lt;span style=&quot;color: rgb(50, 50, 50); font-family: &amp;quot;Microsoft YaHei&amp;quot;, 微软雅黑, Arial; font-size: 13px; background-color: rgba(255, 255, 255, 0.01);&quot;&gt;- firstName: String;&lt;/span&gt;&lt;br style=&quot;color: rgb(50, 50, 50); font-family: &amp;quot;Microsoft YaHei&amp;quot;, 微软雅黑, Arial; font-size: 13px;&quot;&gt;&lt;span style=&quot;color: rgb(50, 50, 50); font-family: &amp;quot;Microsoft YaHei&amp;quot;, 微软雅黑, Arial; font-size: 13px; background-color: rgba(255, 255, 255, 0.01);&quot;&gt;- lastName: String;&lt;/span&gt;&lt;br style=&quot;color: rgb(50, 50, 50); font-family: &amp;quot;Microsoft YaHei&amp;quot;, 微软雅黑, Arial; font-size: 13px;&quot;&gt;&lt;span style=&quot;color: rgb(50, 50, 50); font-family: &amp;quot;Microsoft YaHei&amp;quot;, 微软雅黑, Arial; font-size: 13px; background-color: rgba(255, 255, 255, 0.01);&quot;&gt;- studNum: String;&lt;/span&gt;" style="text;strokeColor=none;fillColor=none;align=left;verticalAlign=top;spacingLeft=4;spacingRight=4;overflow=hidden;rotatable=0;points=[[0,0.5],[1,0.5]];portConstraint=eastwest;whiteSpace=wrap;html=1;" vertex="1" parent="7sUv-lEZbpwKmYyYSgff-22">
          <mxGeometry y="26" width="160" height="64" as="geometry" />
        </mxCell>
        <mxCell id="7sUv-lEZbpwKmYyYSgff-24" value="" style="line;strokeWidth=1;fillColor=none;align=left;verticalAlign=middle;spacingTop=-1;spacingLeft=3;spacingRight=3;rotatable=0;labelPosition=right;points=[];portConstraint=eastwest;strokeColor=inherit;" vertex="1" parent="7sUv-lEZbpwKmYyYSgff-22">
          <mxGeometry y="90" width="160" height="8" as="geometry" />
        </mxCell>
        <mxCell id="7sUv-lEZbpwKmYyYSgff-25" value="&lt;span style=&quot;color: rgb(50, 50, 50); font-family: &amp;quot;Microsoft YaHei&amp;quot;, 微软雅黑, Arial; font-size: 13px; background-color: rgba(255, 255, 255, 0.01);&quot;&gt;+getAllAwards(String file): ArrayList&lt;/span&gt;" style="text;strokeColor=none;fillColor=none;align=left;verticalAlign=top;spacingLeft=4;spacingRight=4;overflow=hidden;rotatable=0;points=[[0,0.5],[1,0.5]];portConstraint=eastwest;whiteSpace=wrap;html=1;" vertex="1" parent="7sUv-lEZbpwKmYyYSgff-22">
          <mxGeometry y="98" width="160" height="49" as="geometry" />
        </mxCell>
        <mxCell id="7sUv-lEZbpwKmYyYSgff-26" value="&lt;span style=&quot;color: rgb(50, 50, 50); font-family: &amp;quot;Microsoft YaHei&amp;quot;, 微软雅黑, Arial; font-size: 13px; background-color: rgba(255, 255, 255, 0.01);&quot;&gt;StudentAwardModel&lt;/span&gt;" style="swimlane;fontStyle=1;align=center;verticalAlign=top;childLayout=stackLayout;horizontal=1;startSize=26;horizontalStack=0;resizeParent=1;resizeParentMax=0;resizeLast=0;collapsible=1;marginBottom=0;whiteSpace=wrap;html=1;" vertex="1" parent="1">
          <mxGeometry x="-119" y="23" width="195" height="231" as="geometry" />
        </mxCell>
        <mxCell id="7sUv-lEZbpwKmYyYSgff-27" value="&lt;span style=&quot;color: rgb(50, 50, 50); font-family: &amp;quot;Microsoft YaHei&amp;quot;, 微软雅黑, Arial; font-size: 13px; background-color: rgba(255, 255, 255, 0.01);&quot;&gt;- studFirstName: String;&lt;/span&gt;&lt;br style=&quot;color: rgb(50, 50, 50); font-family: &amp;quot;Microsoft YaHei&amp;quot;, 微软雅黑, Arial; font-size: 13px;&quot;&gt;&lt;span style=&quot;color: rgb(50, 50, 50); font-family: &amp;quot;Microsoft YaHei&amp;quot;, 微软雅黑, Arial; font-size: 13px; background-color: rgba(255, 255, 255, 0.01);&quot;&gt;- studLastName: String;&lt;/span&gt;&lt;br style=&quot;color: rgb(50, 50, 50); font-family: &amp;quot;Microsoft YaHei&amp;quot;, 微软雅黑, Arial; font-size: 13px;&quot;&gt;&lt;span style=&quot;color: rgb(50, 50, 50); font-family: &amp;quot;Microsoft YaHei&amp;quot;, 微软雅黑, Arial; font-size: 13px; background-color: rgba(255, 255, 255, 0.01);&quot;&gt;- studSerialNum: String;&lt;/span&gt;&lt;br style=&quot;color: rgb(50, 50, 50); font-family: &amp;quot;Microsoft YaHei&amp;quot;, 微软雅黑, Arial; font-size: 13px;&quot;&gt;&lt;span style=&quot;color: rgb(50, 50, 50); font-family: &amp;quot;Microsoft YaHei&amp;quot;, 微软雅黑, Arial; font-size: 13px; background-color: rgba(255, 255, 255, 0.01);&quot;&gt;- awardName: String;&lt;/span&gt;&lt;br style=&quot;color: rgb(50, 50, 50); font-family: &amp;quot;Microsoft YaHei&amp;quot;, 微软雅黑, Arial; font-size: 13px;&quot;&gt;&lt;span style=&quot;color: rgb(50, 50, 50); font-family: &amp;quot;Microsoft YaHei&amp;quot;, 微软雅黑, Arial; font-size: 13px; background-color: rgba(255, 255, 255, 0.01);&quot;&gt;- awardDate: String&lt;/span&gt;" style="text;strokeColor=none;fillColor=none;align=left;verticalAlign=top;spacingLeft=4;spacingRight=4;overflow=hidden;rotatable=0;points=[[0,0.5],[1,0.5]];portConstraint=eastwest;whiteSpace=wrap;html=1;" vertex="1" parent="7sUv-lEZbpwKmYyYSgff-26">
          <mxGeometry y="26" width="195" height="96" as="geometry" />
        </mxCell>
        <mxCell id="7sUv-lEZbpwKmYyYSgff-28" value="" style="line;strokeWidth=1;fillColor=none;align=left;verticalAlign=middle;spacingTop=-1;spacingLeft=3;spacingRight=3;rotatable=0;labelPosition=right;points=[];portConstraint=eastwest;strokeColor=inherit;" vertex="1" parent="7sUv-lEZbpwKmYyYSgff-26">
          <mxGeometry y="122" width="195" height="8" as="geometry" />
        </mxCell>
        <mxCell id="7sUv-lEZbpwKmYyYSgff-29" value="&lt;span style=&quot;color: rgb(50, 50, 50); font-family: &amp;quot;Microsoft YaHei&amp;quot;, 微软雅黑, Arial; font-size: 13px; background-color: rgba(255, 255, 255, 0.01);&quot;&gt;+getStudFirstName(): String&lt;/span&gt;&lt;br style=&quot;color: rgb(50, 50, 50); font-family: &amp;quot;Microsoft YaHei&amp;quot;, 微软雅黑, Arial; font-size: 13px;&quot;&gt;&lt;span style=&quot;color: rgb(50, 50, 50); font-family: &amp;quot;Microsoft YaHei&amp;quot;, 微软雅黑, Arial; font-size: 13px; background-color: rgba(255, 255, 255, 0.01);&quot;&gt;+getStudLastName(): String&lt;/span&gt;&lt;br style=&quot;color: rgb(50, 50, 50); font-family: &amp;quot;Microsoft YaHei&amp;quot;, 微软雅黑, Arial; font-size: 13px;&quot;&gt;&lt;span style=&quot;color: rgb(50, 50, 50); font-family: &amp;quot;Microsoft YaHei&amp;quot;, 微软雅黑, Arial; font-size: 13px; background-color: rgba(255, 255, 255, 0.01);&quot;&gt;+getStudSerialNum(): String&lt;/span&gt;&lt;br style=&quot;color: rgb(50, 50, 50); font-family: &amp;quot;Microsoft YaHei&amp;quot;, 微软雅黑, Arial; font-size: 13px;&quot;&gt;&lt;span style=&quot;color: rgb(50, 50, 50); font-family: &amp;quot;Microsoft YaHei&amp;quot;, 微软雅黑, Arial; font-size: 13px; background-color: rgba(255, 255, 255, 0.01);&quot;&gt;+getAwardName(): String&lt;/span&gt;&lt;br style=&quot;color: rgb(50, 50, 50); font-family: &amp;quot;Microsoft YaHei&amp;quot;, 微软雅黑, Arial; font-size: 13px;&quot;&gt;&lt;span style=&quot;color: rgb(50, 50, 50); font-family: &amp;quot;Microsoft YaHei&amp;quot;, 微软雅黑, Arial; font-size: 13px; background-color: rgba(255, 255, 255, 0.01);&quot;&gt;+ getAwardDate(): String&lt;/span&gt;" style="text;strokeColor=none;fillColor=none;align=left;verticalAlign=top;spacingLeft=4;spacingRight=4;overflow=hidden;rotatable=0;points=[[0,0.5],[1,0.5]];portConstraint=eastwest;whiteSpace=wrap;html=1;" vertex="1" parent="7sUv-lEZbpwKmYyYSgff-26">
          <mxGeometry y="130" width="195" height="101" as="geometry" />
        </mxCell>
        <mxCell id="7sUv-lEZbpwKmYyYSgff-54" style="edgeStyle=none;curved=1;rounded=0;orthogonalLoop=1;jettySize=auto;html=1;fontSize=12;startSize=8;endSize=8;" edge="1" parent="1" source="7sUv-lEZbpwKmYyYSgff-32" target="7sUv-lEZbpwKmYyYSgff-41">
          <mxGeometry relative="1" as="geometry" />
        </mxCell>
        <mxCell id="7sUv-lEZbpwKmYyYSgff-32" value="&lt;span style=&quot;color: rgb(50, 50, 50); font-family: &amp;quot;Microsoft YaHei&amp;quot;, 微软雅黑, Arial; font-size: 13px; background-color: rgba(255, 255, 255, 0.01);&quot;&gt;AcademicRecord&lt;/span&gt;" style="swimlane;fontStyle=1;align=center;verticalAlign=top;childLayout=stackLayout;horizontal=1;startSize=26;horizontalStack=0;resizeParent=1;resizeParentMax=0;resizeLast=0;collapsible=1;marginBottom=0;whiteSpace=wrap;html=1;" vertex="1" parent="1">
          <mxGeometry x="147" y="-164" width="160" height="147" as="geometry" />
        </mxCell>
        <mxCell id="7sUv-lEZbpwKmYyYSgff-33" value="&lt;span style=&quot;color: rgb(50, 50, 50); font-family: &amp;quot;Microsoft YaHei&amp;quot;, 微软雅黑, Arial; font-size: 13px; background-color: rgba(255, 255, 255, 0.01);&quot;&gt;- firstName: String;&lt;/span&gt;&lt;br style=&quot;color: rgb(50, 50, 50); font-family: &amp;quot;Microsoft YaHei&amp;quot;, 微软雅黑, Arial; font-size: 13px;&quot;&gt;&lt;span style=&quot;color: rgb(50, 50, 50); font-family: &amp;quot;Microsoft YaHei&amp;quot;, 微软雅黑, Arial; font-size: 13px; background-color: rgba(255, 255, 255, 0.01);&quot;&gt;- lastName: String;&lt;/span&gt;&lt;br style=&quot;color: rgb(50, 50, 50); font-family: &amp;quot;Microsoft YaHei&amp;quot;, 微软雅黑, Arial; font-size: 13px;&quot;&gt;&lt;span style=&quot;color: rgb(50, 50, 50); font-family: &amp;quot;Microsoft YaHei&amp;quot;, 微软雅黑, Arial; font-size: 13px; background-color: rgba(255, 255, 255, 0.01);&quot;&gt;- studNum: String;&lt;/span&gt;" style="text;strokeColor=none;fillColor=none;align=left;verticalAlign=top;spacingLeft=4;spacingRight=4;overflow=hidden;rotatable=0;points=[[0,0.5],[1,0.5]];portConstraint=eastwest;whiteSpace=wrap;html=1;" vertex="1" parent="7sUv-lEZbpwKmYyYSgff-32">
          <mxGeometry y="26" width="160" height="64" as="geometry" />
        </mxCell>
        <mxCell id="7sUv-lEZbpwKmYyYSgff-34" value="" style="line;strokeWidth=1;fillColor=none;align=left;verticalAlign=middle;spacingTop=-1;spacingLeft=3;spacingRight=3;rotatable=0;labelPosition=right;points=[];portConstraint=eastwest;strokeColor=inherit;" vertex="1" parent="7sUv-lEZbpwKmYyYSgff-32">
          <mxGeometry y="90" width="160" height="8" as="geometry" />
        </mxCell>
        <mxCell id="7sUv-lEZbpwKmYyYSgff-35" value="&lt;span style=&quot;color: rgb(50, 50, 50); font-family: &amp;quot;Microsoft YaHei&amp;quot;, 微软雅黑, Arial; font-size: 13px; background-color: rgba(255, 255, 255, 0.01);&quot;&gt;+getAllScores(String file): ArrayList&lt;/span&gt;" style="text;strokeColor=none;fillColor=none;align=left;verticalAlign=top;spacingLeft=4;spacingRight=4;overflow=hidden;rotatable=0;points=[[0,0.5],[1,0.5]];portConstraint=eastwest;whiteSpace=wrap;html=1;" vertex="1" parent="7sUv-lEZbpwKmYyYSgff-32">
          <mxGeometry y="98" width="160" height="49" as="geometry" />
        </mxCell>
        <mxCell id="7sUv-lEZbpwKmYyYSgff-41" value="&lt;span style=&quot;color: rgb(50, 50, 50); font-family: &amp;quot;Microsoft YaHei&amp;quot;, 微软雅黑, Arial; font-size: 13px; background-color: rgba(255, 255, 255, 0.01);&quot;&gt;StudentAcademicModel&lt;/span&gt;" style="swimlane;fontStyle=1;align=center;verticalAlign=top;childLayout=stackLayout;horizontal=1;startSize=26;horizontalStack=0;resizeParent=1;resizeParentMax=0;resizeLast=0;collapsible=1;marginBottom=0;whiteSpace=wrap;html=1;" vertex="1" parent="1">
          <mxGeometry x="125" y="21" width="204" height="254" as="geometry" />
        </mxCell>
        <mxCell id="7sUv-lEZbpwKmYyYSgff-42" value="&lt;span style=&quot;color: rgb(50, 50, 50); font-family: &amp;quot;Microsoft YaHei&amp;quot;, 微软雅黑, Arial; font-size: 13px; background-color: rgba(255, 255, 255, 0.01);&quot;&gt;- studFirstName: String;&lt;/span&gt;&lt;br style=&quot;color: rgb(50, 50, 50); font-family: &amp;quot;Microsoft YaHei&amp;quot;, 微软雅黑, Arial; font-size: 13px;&quot;&gt;&lt;span style=&quot;color: rgb(50, 50, 50); font-family: &amp;quot;Microsoft YaHei&amp;quot;, 微软雅黑, Arial; font-size: 13px; background-color: rgba(255, 255, 255, 0.01);&quot;&gt;- studLastName: String;&lt;/span&gt;&lt;br style=&quot;color: rgb(50, 50, 50); font-family: &amp;quot;Microsoft YaHei&amp;quot;, 微软雅黑, Arial; font-size: 13px;&quot;&gt;&lt;span style=&quot;color: rgb(50, 50, 50); font-family: &amp;quot;Microsoft YaHei&amp;quot;, 微软雅黑, Arial; font-size: 13px; background-color: rgba(255, 255, 255, 0.01);&quot;&gt;- studSerialNum: String;&lt;/span&gt;&lt;br style=&quot;color: rgb(50, 50, 50); font-family: &amp;quot;Microsoft YaHei&amp;quot;, 微软雅黑, Arial; font-size: 13px;&quot;&gt;&lt;span style=&quot;color: rgb(50, 50, 50); font-family: &amp;quot;Microsoft YaHei&amp;quot;, 微软雅黑, Arial; font-size: 13px; background-color: rgba(255, 255, 255, 0.01);&quot;&gt;- courseTitle: String;&lt;/span&gt;&lt;br style=&quot;color: rgb(50, 50, 50); font-family: &amp;quot;Microsoft YaHei&amp;quot;, 微软雅黑, Arial; font-size: 13px;&quot;&gt;&lt;span style=&quot;color: rgb(50, 50, 50); font-family: &amp;quot;Microsoft YaHei&amp;quot;, 微软雅黑, Arial; font-size: 13px; background-color: rgba(255, 255, 255, 0.01);&quot;&gt;- courseNum: String;&lt;/span&gt;&lt;br style=&quot;color: rgb(50, 50, 50); font-family: &amp;quot;Microsoft YaHei&amp;quot;, 微软雅黑, Arial; font-size: 13px;&quot;&gt;&lt;span style=&quot;color: rgb(50, 50, 50); font-family: &amp;quot;Microsoft YaHei&amp;quot;, 微软雅黑, Arial; font-size: 13px; background-color: rgba(255, 255, 255, 0.01);&quot;&gt;- score: String;&lt;/span&gt;" style="text;strokeColor=none;fillColor=none;align=left;verticalAlign=top;spacingLeft=4;spacingRight=4;overflow=hidden;rotatable=0;points=[[0,0.5],[1,0.5]];portConstraint=eastwest;whiteSpace=wrap;html=1;" vertex="1" parent="7sUv-lEZbpwKmYyYSgff-41">
          <mxGeometry y="26" width="204" height="109" as="geometry" />
        </mxCell>
        <mxCell id="7sUv-lEZbpwKmYyYSgff-43" value="" style="line;strokeWidth=1;fillColor=none;align=left;verticalAlign=middle;spacingTop=-1;spacingLeft=3;spacingRight=3;rotatable=0;labelPosition=right;points=[];portConstraint=eastwest;strokeColor=inherit;" vertex="1" parent="7sUv-lEZbpwKmYyYSgff-41">
          <mxGeometry y="135" width="204" height="8" as="geometry" />
        </mxCell>
        <mxCell id="7sUv-lEZbpwKmYyYSgff-44" value="&lt;span style=&quot;color: rgb(50, 50, 50); font-family: &amp;quot;Microsoft YaHei&amp;quot;, 微软雅黑, Arial; font-size: 13px; background-color: rgba(255, 255, 255, 0.01);&quot;&gt;+getStudFirstName(): String&lt;/span&gt;&lt;br style=&quot;color: rgb(50, 50, 50); font-family: &amp;quot;Microsoft YaHei&amp;quot;, 微软雅黑, Arial; font-size: 13px;&quot;&gt;&lt;span style=&quot;color: rgb(50, 50, 50); font-family: &amp;quot;Microsoft YaHei&amp;quot;, 微软雅黑, Arial; font-size: 13px; background-color: rgba(255, 255, 255, 0.01);&quot;&gt;+getStudLastName(): String&lt;/span&gt;&lt;br style=&quot;color: rgb(50, 50, 50); font-family: &amp;quot;Microsoft YaHei&amp;quot;, 微软雅黑, Arial; font-size: 13px;&quot;&gt;&lt;span style=&quot;color: rgb(50, 50, 50); font-family: &amp;quot;Microsoft YaHei&amp;quot;, 微软雅黑, Arial; font-size: 13px; background-color: rgba(255, 255, 255, 0.01);&quot;&gt;+getStudSerialNum(): String&lt;/span&gt;&lt;br style=&quot;color: rgb(50, 50, 50); font-family: &amp;quot;Microsoft YaHei&amp;quot;, 微软雅黑, Arial; font-size: 13px;&quot;&gt;&lt;span style=&quot;color: rgb(50, 50, 50); font-family: &amp;quot;Microsoft YaHei&amp;quot;, 微软雅黑, Arial; font-size: 13px; background-color: rgba(255, 255, 255, 0.01);&quot;&gt;+getCourseTitle(): String&lt;/span&gt;&lt;br style=&quot;color: rgb(50, 50, 50); font-family: &amp;quot;Microsoft YaHei&amp;quot;, 微软雅黑, Arial; font-size: 13px;&quot;&gt;&lt;span style=&quot;color: rgb(50, 50, 50); font-family: &amp;quot;Microsoft YaHei&amp;quot;, 微软雅黑, Arial; font-size: 13px; background-color: rgba(255, 255, 255, 0.01);&quot;&gt;+getCourseNum(): String&lt;/span&gt;&lt;br style=&quot;color: rgb(50, 50, 50); font-family: &amp;quot;Microsoft YaHei&amp;quot;, 微软雅黑, Arial; font-size: 13px;&quot;&gt;&lt;span style=&quot;color: rgb(50, 50, 50); font-family: &amp;quot;Microsoft YaHei&amp;quot;, 微软雅黑, Arial; font-size: 13px; background-color: rgba(255, 255, 255, 0.01);&quot;&gt;+getScore(): String&lt;/span&gt;" style="text;strokeColor=none;fillColor=none;align=left;verticalAlign=top;spacingLeft=4;spacingRight=4;overflow=hidden;rotatable=0;points=[[0,0.5],[1,0.5]];portConstraint=eastwest;whiteSpace=wrap;html=1;" vertex="1" parent="7sUv-lEZbpwKmYyYSgff-41">
          <mxGeometry y="143" width="204" height="111" as="geometry" />
        </mxCell>
        <mxCell id="7sUv-lEZbpwKmYyYSgff-55" style="edgeStyle=none;curved=1;rounded=0;orthogonalLoop=1;jettySize=auto;html=1;fontSize=12;startSize=8;endSize=8;" edge="1" parent="1" source="7sUv-lEZbpwKmYyYSgff-46" target="7sUv-lEZbpwKmYyYSgff-50">
          <mxGeometry relative="1" as="geometry" />
        </mxCell>
        <mxCell id="7sUv-lEZbpwKmYyYSgff-46" value="&lt;span style=&quot;color: rgb(50, 50, 50); font-family: &amp;quot;Microsoft YaHei&amp;quot;, 微软雅黑, Arial; font-size: 13px; background-color: rgba(255, 255, 255, 0.01);&quot;&gt;StudentBasicInfo&lt;/span&gt;" style="swimlane;fontStyle=1;align=center;verticalAlign=top;childLayout=stackLayout;horizontal=1;startSize=26;horizontalStack=0;resizeParent=1;resizeParentMax=0;resizeLast=0;collapsible=1;marginBottom=0;whiteSpace=wrap;html=1;" vertex="1" parent="1">
          <mxGeometry x="387" y="-164" width="220" height="166" as="geometry" />
        </mxCell>
        <mxCell id="7sUv-lEZbpwKmYyYSgff-47" value="&lt;span style=&quot;color: rgb(50, 50, 50); font-family: &amp;quot;Microsoft YaHei&amp;quot;, 微软雅黑, Arial; font-size: 13px; background-color: rgba(255, 255, 255, 0.01);&quot;&gt;- name: String;&lt;/span&gt;&lt;br style=&quot;color: rgb(50, 50, 50); font-family: &amp;quot;Microsoft YaHei&amp;quot;, 微软雅黑, Arial; font-size: 13px;&quot;&gt;&lt;span style=&quot;color: rgb(50, 50, 50); font-family: &amp;quot;Microsoft YaHei&amp;quot;, 微软雅黑, Arial; font-size: 13px; background-color: rgba(255, 255, 255, 0.01);&quot;&gt;- birthDate: String;&lt;/span&gt;&lt;br style=&quot;color: rgb(50, 50, 50); font-family: &amp;quot;Microsoft YaHei&amp;quot;, 微软雅黑, Arial; font-size: 13px;&quot;&gt;&lt;span style=&quot;color: rgb(50, 50, 50); font-family: &amp;quot;Microsoft YaHei&amp;quot;, 微软雅黑, Arial; font-size: 13px; background-color: rgba(255, 255, 255, 0.01);&quot;&gt;- serialNum: String;&lt;/span&gt;" style="text;strokeColor=none;fillColor=none;align=left;verticalAlign=top;spacingLeft=4;spacingRight=4;overflow=hidden;rotatable=0;points=[[0,0.5],[1,0.5]];portConstraint=eastwest;whiteSpace=wrap;html=1;" vertex="1" parent="7sUv-lEZbpwKmYyYSgff-46">
          <mxGeometry y="26" width="220" height="62" as="geometry" />
        </mxCell>
        <mxCell id="7sUv-lEZbpwKmYyYSgff-48" value="" style="line;strokeWidth=1;fillColor=none;align=left;verticalAlign=middle;spacingTop=-1;spacingLeft=3;spacingRight=3;rotatable=0;labelPosition=right;points=[];portConstraint=eastwest;strokeColor=inherit;" vertex="1" parent="7sUv-lEZbpwKmYyYSgff-46">
          <mxGeometry y="88" width="220" height="8" as="geometry" />
        </mxCell>
        <mxCell id="7sUv-lEZbpwKmYyYSgff-49" value="&lt;span style=&quot;color: rgb(50, 50, 50); font-family: &amp;quot;Microsoft YaHei&amp;quot;, 微软雅黑, Arial; font-size: 13px; background-color: rgba(255, 255, 255, 0.01);&quot;&gt;+isExistingStudentName(String name)&lt;/span&gt;&lt;br style=&quot;color: rgb(50, 50, 50); font-family: &amp;quot;Microsoft YaHei&amp;quot;, 微软雅黑, Arial; font-size: 13px;&quot;&gt;&lt;span style=&quot;color: rgb(50, 50, 50); font-family: &amp;quot;Microsoft YaHei&amp;quot;, 微软雅黑, Arial; font-size: 13px; background-color: rgba(255, 255, 255, 0.01);&quot;&gt;+getStudentBasicInfo(): ArrayList&lt;/span&gt;" style="text;strokeColor=none;fillColor=none;align=left;verticalAlign=top;spacingLeft=4;spacingRight=4;overflow=hidden;rotatable=0;points=[[0,0.5],[1,0.5]];portConstraint=eastwest;whiteSpace=wrap;html=1;" vertex="1" parent="7sUv-lEZbpwKmYyYSgff-46">
          <mxGeometry y="96" width="220" height="70" as="geometry" />
        </mxCell>
        <mxCell id="7sUv-lEZbpwKmYyYSgff-50" value="&lt;span style=&quot;color: rgb(50, 50, 50); font-family: &amp;quot;Microsoft YaHei&amp;quot;, 微软雅黑, Arial; font-size: 13px; background-color: rgba(255, 255, 255, 0.01);&quot;&gt;StudentBasicInfoModel&lt;/span&gt;" style="swimlane;fontStyle=1;align=center;verticalAlign=top;childLayout=stackLayout;horizontal=1;startSize=24;horizontalStack=0;resizeParent=1;resizeParentMax=0;resizeLast=0;collapsible=1;marginBottom=0;whiteSpace=wrap;html=1;" vertex="1" parent="1">
          <mxGeometry x="386" y="31" width="221" height="253" as="geometry" />
        </mxCell>
        <mxCell id="7sUv-lEZbpwKmYyYSgff-51" value="&lt;span style=&quot;color: rgb(50, 50, 50); font-family: &amp;quot;Microsoft YaHei&amp;quot;, 微软雅黑, Arial; font-size: 13px; background-color: rgba(255, 255, 255, 0.01);&quot;&gt;- name: String;&lt;/span&gt;&lt;br style=&quot;color: rgb(50, 50, 50); font-family: &amp;quot;Microsoft YaHei&amp;quot;, 微软雅黑, Arial; font-size: 13px;&quot;&gt;&lt;span style=&quot;color: rgb(50, 50, 50); font-family: &amp;quot;Microsoft YaHei&amp;quot;, 微软雅黑, Arial; font-size: 13px; background-color: rgba(255, 255, 255, 0.01);&quot;&gt;- birthDate: String;&lt;/span&gt;&lt;br style=&quot;color: rgb(50, 50, 50); font-family: &amp;quot;Microsoft YaHei&amp;quot;, 微软雅黑, Arial; font-size: 13px;&quot;&gt;&lt;span style=&quot;color: rgb(50, 50, 50); font-family: &amp;quot;Microsoft YaHei&amp;quot;, 微软雅黑, Arial; font-size: 13px; background-color: rgba(255, 255, 255, 0.01);&quot;&gt;- serialNumber: String;&lt;/span&gt;&lt;br style=&quot;color: rgb(50, 50, 50); font-family: &amp;quot;Microsoft YaHei&amp;quot;, 微软雅黑, Arial; font-size: 13px;&quot;&gt;&lt;span style=&quot;color: rgb(50, 50, 50); font-family: &amp;quot;Microsoft YaHei&amp;quot;, 微软雅黑, Arial; font-size: 13px; background-color: rgba(255, 255, 255, 0.01);&quot;&gt;- ssNumber: String;&lt;/span&gt;&lt;br style=&quot;color: rgb(50, 50, 50); font-family: &amp;quot;Microsoft YaHei&amp;quot;, 微软雅黑, Arial; font-size: 13px;&quot;&gt;&lt;span style=&quot;color: rgb(50, 50, 50); font-family: &amp;quot;Microsoft YaHei&amp;quot;, 微软雅黑, Arial; font-size: 13px; background-color: rgba(255, 255, 255, 0.01);&quot;&gt;- major: String;&lt;/span&gt;&lt;br style=&quot;color: rgb(50, 50, 50); font-family: &amp;quot;Microsoft YaHei&amp;quot;, 微软雅黑, Arial; font-size: 13px;&quot;&gt;&lt;span style=&quot;color: rgb(50, 50, 50); font-family: &amp;quot;Microsoft YaHei&amp;quot;, 微软雅黑, Arial; font-size: 13px; background-color: rgba(255, 255, 255, 0.01);&quot;&gt;- degree: String;&lt;/span&gt;" style="text;strokeColor=none;fillColor=none;align=left;verticalAlign=top;spacingLeft=4;spacingRight=4;overflow=hidden;rotatable=0;points=[[0,0.5],[1,0.5]];portConstraint=eastwest;whiteSpace=wrap;html=1;" vertex="1" parent="7sUv-lEZbpwKmYyYSgff-50">
          <mxGeometry y="24" width="221" height="108" as="geometry" />
        </mxCell>
        <mxCell id="7sUv-lEZbpwKmYyYSgff-52" value="" style="line;strokeWidth=1;fillColor=none;align=left;verticalAlign=middle;spacingTop=-1;spacingLeft=3;spacingRight=3;rotatable=0;labelPosition=right;points=[];portConstraint=eastwest;strokeColor=inherit;" vertex="1" parent="7sUv-lEZbpwKmYyYSgff-50">
          <mxGeometry y="132" width="221" height="8" as="geometry" />
        </mxCell>
        <mxCell id="7sUv-lEZbpwKmYyYSgff-53" value="&lt;span style=&quot;color: rgb(50, 50, 50); font-family: &amp;quot;Microsoft YaHei&amp;quot;, 微软雅黑, Arial; font-size: 13px; background-color: rgba(255, 255, 255, 0.01);&quot;&gt;+getName(): String&lt;/span&gt;&lt;br style=&quot;color: rgb(50, 50, 50); font-family: &amp;quot;Microsoft YaHei&amp;quot;, 微软雅黑, Arial; font-size: 13px;&quot;&gt;&lt;span style=&quot;color: rgb(50, 50, 50); font-family: &amp;quot;Microsoft YaHei&amp;quot;, 微软雅黑, Arial; font-size: 13px; background-color: rgba(255, 255, 255, 0.01);&quot;&gt;+getBirthDate(): String&lt;/span&gt;&lt;br style=&quot;color: rgb(50, 50, 50); font-family: &amp;quot;Microsoft YaHei&amp;quot;, 微软雅黑, Arial; font-size: 13px;&quot;&gt;&lt;span style=&quot;color: rgb(50, 50, 50); font-family: &amp;quot;Microsoft YaHei&amp;quot;, 微软雅黑, Arial; font-size: 13px; background-color: rgba(255, 255, 255, 0.01);&quot;&gt;+getSerialNum(): String&lt;/span&gt;&lt;br style=&quot;color: rgb(50, 50, 50); font-family: &amp;quot;Microsoft YaHei&amp;quot;, 微软雅黑, Arial; font-size: 13px;&quot;&gt;&lt;span style=&quot;color: rgb(50, 50, 50); font-family: &amp;quot;Microsoft YaHei&amp;quot;, 微软雅黑, Arial; font-size: 13px; background-color: rgba(255, 255, 255, 0.01);&quot;&gt;+getSocialSecurityNum(): String&lt;/span&gt;&lt;br style=&quot;color: rgb(50, 50, 50); font-family: &amp;quot;Microsoft YaHei&amp;quot;, 微软雅黑, Arial; font-size: 13px;&quot;&gt;&lt;span style=&quot;color: rgb(50, 50, 50); font-family: &amp;quot;Microsoft YaHei&amp;quot;, 微软雅黑, Arial; font-size: 13px; background-color: rgba(255, 255, 255, 0.01);&quot;&gt;+getMajor(): String&lt;/span&gt;&lt;br style=&quot;color: rgb(50, 50, 50); font-family: &amp;quot;Microsoft YaHei&amp;quot;, 微软雅黑, Arial; font-size: 13px;&quot;&gt;&lt;span style=&quot;color: rgb(50, 50, 50); font-family: &amp;quot;Microsoft YaHei&amp;quot;, 微软雅黑, Arial; font-size: 13px; background-color: rgba(255, 255, 255, 0.01);&quot;&gt;+getDegree(): String&lt;/span&gt;" style="text;strokeColor=none;fillColor=none;align=left;verticalAlign=top;spacingLeft=4;spacingRight=4;overflow=hidden;rotatable=0;points=[[0,0.5],[1,0.5]];portConstraint=eastwest;whiteSpace=wrap;html=1;" vertex="1" parent="7sUv-lEZbpwKmYyYSgff-50">
          <mxGeometry y="140" width="221" height="113" as="geometry" />
        </mxCell>
        <mxCell id="7sUv-lEZbpwKmYyYSgff-56" value="1" style="endArrow=open;html=1;endSize=12;startArrow=diamondThin;startSize=14;startFill=0;edgeStyle=orthogonalEdgeStyle;align=left;verticalAlign=bottom;rounded=0;fontSize=12;curved=1;" edge="1" parent="1" source="7sUv-lEZbpwKmYyYSgff-63" target="7sUv-lEZbpwKmYyYSgff-22">
          <mxGeometry x="-1" y="3" relative="1" as="geometry">
            <mxPoint x="60" y="-182" as="sourcePoint" />
            <mxPoint x="338" y="-84" as="targetPoint" />
          </mxGeometry>
        </mxCell>
        <mxCell id="7sUv-lEZbpwKmYyYSgff-57" value="1" style="endArrow=open;html=1;endSize=12;startArrow=diamondThin;startSize=14;startFill=0;edgeStyle=orthogonalEdgeStyle;align=left;verticalAlign=bottom;rounded=0;fontSize=12;curved=1;" edge="1" parent="1" source="7sUv-lEZbpwKmYyYSgff-63" target="7sUv-lEZbpwKmYyYSgff-32">
          <mxGeometry x="-1" y="3" relative="1" as="geometry">
            <mxPoint x="162" y="-262" as="sourcePoint" />
            <mxPoint x="275" y="-326" as="targetPoint" />
          </mxGeometry>
        </mxCell>
        <mxCell id="7sUv-lEZbpwKmYyYSgff-61" value="1" style="endArrow=open;html=1;endSize=12;startArrow=diamondThin;startSize=14;startFill=0;edgeStyle=orthogonalEdgeStyle;align=left;verticalAlign=bottom;rounded=0;fontSize=12;curved=1;exitX=0.987;exitY=0.064;exitDx=0;exitDy=0;exitPerimeter=0;" edge="1" parent="1" source="7sUv-lEZbpwKmYyYSgff-63" target="7sUv-lEZbpwKmYyYSgff-18">
          <mxGeometry x="-1" y="3" relative="1" as="geometry">
            <mxPoint x="86.25" y="-529" as="sourcePoint" />
            <mxPoint x="389.75" y="-266" as="targetPoint" />
          </mxGeometry>
        </mxCell>
        <mxCell id="7sUv-lEZbpwKmYyYSgff-63" value="&lt;span style=&quot;color: rgb(50, 50, 50); font-family: &amp;quot;Microsoft YaHei&amp;quot;, 微软雅黑, Arial; font-size: 13px; background-color: rgba(255, 255, 255, 0.01);&quot;&gt;StudentInfoFacade&lt;/span&gt;" style="swimlane;fontStyle=1;align=center;verticalAlign=top;childLayout=stackLayout;horizontal=1;startSize=26;horizontalStack=0;resizeParent=1;resizeParentMax=0;resizeLast=0;collapsible=1;marginBottom=0;whiteSpace=wrap;html=1;" vertex="1" parent="1">
          <mxGeometry x="-87" y="-460" width="223" height="199" as="geometry" />
        </mxCell>
        <mxCell id="7sUv-lEZbpwKmYyYSgff-64" value="&lt;span style=&quot;color: rgb(50, 50, 50); font-family: &amp;quot;Microsoft YaHei&amp;quot;, 微软雅黑, Arial; font-size: 13px; background-color: rgba(255, 255, 255, 0.01);&quot;&gt;- firstName: String;&lt;/span&gt;&lt;br style=&quot;color: rgb(50, 50, 50); font-family: &amp;quot;Microsoft YaHei&amp;quot;, 微软雅黑, Arial; font-size: 13px;&quot;&gt;&lt;span style=&quot;color: rgb(50, 50, 50); font-family: &amp;quot;Microsoft YaHei&amp;quot;, 微软雅黑, Arial; font-size: 13px; background-color: rgba(255, 255, 255, 0.01);&quot;&gt;- lastName: String;&lt;/span&gt;&lt;br style=&quot;color: rgb(50, 50, 50); font-family: &amp;quot;Microsoft YaHei&amp;quot;, 微软雅黑, Arial; font-size: 13px;&quot;&gt;&lt;span style=&quot;color: rgb(50, 50, 50); font-family: &amp;quot;Microsoft YaHei&amp;quot;, 微软雅黑, Arial; font-size: 13px; background-color: rgba(255, 255, 255, 0.01);&quot;&gt;- studNum: String;&lt;/span&gt;" style="text;strokeColor=none;fillColor=none;align=left;verticalAlign=top;spacingLeft=4;spacingRight=4;overflow=hidden;rotatable=0;points=[[0,0.5],[1,0.5]];portConstraint=eastwest;whiteSpace=wrap;html=1;" vertex="1" parent="7sUv-lEZbpwKmYyYSgff-63">
          <mxGeometry y="26" width="223" height="62" as="geometry" />
        </mxCell>
        <mxCell id="7sUv-lEZbpwKmYyYSgff-65" value="" style="line;strokeWidth=1;fillColor=none;align=left;verticalAlign=middle;spacingTop=-1;spacingLeft=3;spacingRight=3;rotatable=0;labelPosition=right;points=[];portConstraint=eastwest;strokeColor=inherit;" vertex="1" parent="7sUv-lEZbpwKmYyYSgff-63">
          <mxGeometry y="88" width="223" height="8" as="geometry" />
        </mxCell>
        <mxCell id="7sUv-lEZbpwKmYyYSgff-66" value="&lt;span style=&quot;color: rgb(50, 50, 50); font-family: &amp;quot;Microsoft YaHei&amp;quot;, 微软雅黑, Arial; font-size: 13px; background-color: rgba(255, 255, 255, 0.01);&quot;&gt;+extractStudentInfo(): String&lt;/span&gt;&lt;br style=&quot;color: rgb(50, 50, 50); font-family: &amp;quot;Microsoft YaHei&amp;quot;, 微软雅黑, Arial; font-size: 13px;&quot;&gt;&lt;span style=&quot;color: rgb(50, 50, 50); font-family: &amp;quot;Microsoft YaHei&amp;quot;, 微软雅黑, Arial; font-size: 13px; background-color: rgba(255, 255, 255, 0.01);&quot;&gt;+extractAcademicRecord(): String&lt;/span&gt;&lt;br style=&quot;color: rgb(50, 50, 50); font-family: &amp;quot;Microsoft YaHei&amp;quot;, 微软雅黑, Arial; font-size: 13px;&quot;&gt;&lt;span style=&quot;color: rgb(50, 50, 50); font-family: &amp;quot;Microsoft YaHei&amp;quot;, 微软雅黑, Arial; font-size: 13px; background-color: rgba(255, 255, 255, 0.01);&quot;&gt;+extractAllAwards(): String&lt;/span&gt;&lt;br style=&quot;color: rgb(50, 50, 50); font-family: &amp;quot;Microsoft YaHei&amp;quot;, 微软雅黑, Arial; font-size: 13px;&quot;&gt;&lt;span style=&quot;color: rgb(50, 50, 50); font-family: &amp;quot;Microsoft YaHei&amp;quot;, 微软雅黑, Arial; font-size: 13px; background-color: rgba(255, 255, 255, 0.01);&quot;&gt;+getStudentInfo(): String&lt;/span&gt;&lt;div&gt;&lt;span style=&quot;color: rgb(50, 50, 50); font-family: &amp;quot;Microsoft YaHei&amp;quot;, 微软雅黑, Arial; font-size: 13px; background-color: rgba(255, 255, 255, 0.01);&quot;&gt;+&lt;/span&gt;&lt;span style=&quot;background-color: rgba(255, 255, 255, 0.01); color: rgb(50, 50, 50); font-family: &amp;quot;Microsoft YaHei&amp;quot;, 微软雅黑, Arial; font-size: 13px;&quot;&gt;extractTuitionInfo()：String&lt;/span&gt;&lt;/div&gt;" style="text;strokeColor=none;fillColor=none;align=left;verticalAlign=top;spacingLeft=4;spacingRight=4;overflow=hidden;rotatable=0;points=[[0,0.5],[1,0.5]];portConstraint=eastwest;whiteSpace=wrap;html=1;" vertex="1" parent="7sUv-lEZbpwKmYyYSgff-63">
          <mxGeometry y="96" width="223" height="103" as="geometry" />
        </mxCell>
        <mxCell id="7sUv-lEZbpwKmYyYSgff-69" value="1" style="endArrow=open;html=1;endSize=12;startArrow=diamondThin;startSize=14;startFill=0;edgeStyle=orthogonalEdgeStyle;align=left;verticalAlign=bottom;rounded=0;fontSize=12;curved=1;exitX=1;exitY=0.5;exitDx=0;exitDy=0;" edge="1" parent="1" source="7sUv-lEZbpwKmYyYSgff-64" target="7sUv-lEZbpwKmYyYSgff-46">
          <mxGeometry x="-1" y="3" relative="1" as="geometry">
            <mxPoint x="477" y="-213" as="sourcePoint" />
            <mxPoint x="637" y="-213" as="targetPoint" />
          </mxGeometry>
        </mxCell>
        <mxCell id="7sUv-lEZbpwKmYyYSgff-74" style="edgeStyle=none;curved=1;rounded=0;orthogonalLoop=1;jettySize=auto;html=1;entryX=0.5;entryY=0;entryDx=0;entryDy=0;fontSize=12;startSize=8;endSize=8;" edge="1" parent="1" source="7sUv-lEZbpwKmYyYSgff-70" target="7sUv-lEZbpwKmYyYSgff-63">
          <mxGeometry relative="1" as="geometry" />
        </mxCell>
        <mxCell id="7sUv-lEZbpwKmYyYSgff-70" value="&lt;p class=&quot;MsoNormal&quot;&gt;&lt;b&gt;&lt;span style=&quot;mso-spacerun:&#39;yes&#39;;font-family:Arial;mso-ansi-font-weight:bold;&lt;br/&gt;font-size:11.0000pt;mso-font-kerning:1.0000pt;&quot;&gt;EllipseDrawerGUI&lt;/span&gt;&lt;/b&gt;&lt;/p&gt;" style="swimlane;fontStyle=0;childLayout=stackLayout;horizontal=1;startSize=46;fillColor=none;horizontalStack=0;resizeParent=1;resizeParentMax=0;resizeLast=0;collapsible=1;marginBottom=0;whiteSpace=wrap;html=1;" vertex="1" parent="1">
          <mxGeometry x="-45.5" y="-556" width="140" height="52" as="geometry" />
        </mxCell>
      </root>
    </mxGraphModel>
  </diagram>
  <diagram id="OYcy4YE_n5UJKd5N6BpL" name="第 3 页">
    <mxGraphModel dx="1853" dy="1111" grid="0" gridSize="10" guides="1" tooltips="1" connect="1" arrows="1" fold="1" page="0" pageScale="1" pageWidth="827" pageHeight="1169" math="0" shadow="0">
      <root>
        <mxCell id="0" />
        <mxCell id="1" parent="0" />
        <mxCell id="rfokzn5VtcdykwJG7TU8-18" value="" style="edgeStyle=none;curved=1;rounded=0;orthogonalLoop=1;jettySize=auto;html=1;fontSize=12;startSize=8;endSize=8;" parent="1" source="rfokzn5VtcdykwJG7TU8-1" target="rfokzn5VtcdykwJG7TU8-17" edge="1">
          <mxGeometry relative="1" as="geometry" />
        </mxCell>
        <mxCell id="rfokzn5VtcdykwJG7TU8-1" value="管理员启动系统" style="rounded=1;whiteSpace=wrap;html=1;" parent="1" vertex="1">
          <mxGeometry x="234" y="-394" width="120" height="34" as="geometry" />
        </mxCell>
        <mxCell id="rfokzn5VtcdykwJG7TU8-8" style="edgeStyle=none;curved=1;rounded=0;orthogonalLoop=1;jettySize=auto;html=1;fontSize=12;startSize=8;endSize=8;" parent="1" source="rfokzn5VtcdykwJG7TU8-2" target="rfokzn5VtcdykwJG7TU8-7" edge="1">
          <mxGeometry relative="1" as="geometry">
            <Array as="points" />
          </mxGeometry>
        </mxCell>
        <mxCell id="rfokzn5VtcdykwJG7TU8-9" value="否" style="edgeLabel;html=1;align=center;verticalAlign=middle;resizable=0;points=[];fontSize=12;" parent="rfokzn5VtcdykwJG7TU8-8" vertex="1" connectable="0">
          <mxGeometry x="-0.0909" y="6" relative="1" as="geometry">
            <mxPoint as="offset" />
          </mxGeometry>
        </mxCell>
        <mxCell id="rfokzn5VtcdykwJG7TU8-2" value="验证登录信息是否正确" style="shape=parallelogram;perimeter=parallelogramPerimeter;whiteSpace=wrap;html=1;fixedSize=1;" parent="1" vertex="1">
          <mxGeometry x="214" y="-223" width="155" height="61" as="geometry" />
        </mxCell>
        <mxCell id="rfokzn5VtcdykwJG7TU8-3" value="" style="endArrow=classic;html=1;rounded=0;fontSize=12;startSize=8;endSize=8;curved=1;" parent="1" source="rfokzn5VtcdykwJG7TU8-2" edge="1">
          <mxGeometry width="50" height="50" relative="1" as="geometry">
            <mxPoint x="375" y="-4" as="sourcePoint" />
            <mxPoint x="292" y="-83" as="targetPoint" />
          </mxGeometry>
        </mxCell>
        <mxCell id="rfokzn5VtcdykwJG7TU8-4" value="是" style="edgeLabel;html=1;align=center;verticalAlign=middle;resizable=0;points=[];fontSize=12;" parent="rfokzn5VtcdykwJG7TU8-3" vertex="1" connectable="0">
          <mxGeometry x="-0.2237" y="4" relative="1" as="geometry">
            <mxPoint as="offset" />
          </mxGeometry>
        </mxCell>
        <mxCell id="rfokzn5VtcdykwJG7TU8-52" style="edgeStyle=none;curved=1;rounded=0;orthogonalLoop=1;jettySize=auto;html=1;entryX=0.75;entryY=0;entryDx=0;entryDy=0;fontSize=12;startSize=8;endSize=8;" parent="1" source="rfokzn5VtcdykwJG7TU8-5" target="rfokzn5VtcdykwJG7TU8-13" edge="1">
          <mxGeometry relative="1" as="geometry" />
        </mxCell>
        <mxCell id="rfokzn5VtcdykwJG7TU8-53" style="edgeStyle=none;curved=1;rounded=0;orthogonalLoop=1;jettySize=auto;html=1;fontSize=12;startSize=8;endSize=8;" parent="1" source="rfokzn5VtcdykwJG7TU8-5" target="rfokzn5VtcdykwJG7TU8-14" edge="1">
          <mxGeometry relative="1" as="geometry" />
        </mxCell>
        <mxCell id="rfokzn5VtcdykwJG7TU8-54" style="edgeStyle=none;curved=1;rounded=0;orthogonalLoop=1;jettySize=auto;html=1;fontSize=12;startSize=8;endSize=8;" parent="1" source="rfokzn5VtcdykwJG7TU8-5" target="rfokzn5VtcdykwJG7TU8-15" edge="1">
          <mxGeometry relative="1" as="geometry" />
        </mxCell>
        <mxCell id="rfokzn5VtcdykwJG7TU8-55" style="edgeStyle=none;curved=1;rounded=0;orthogonalLoop=1;jettySize=auto;html=1;fontSize=12;startSize=8;endSize=8;" parent="1" source="rfokzn5VtcdykwJG7TU8-5" target="rfokzn5VtcdykwJG7TU8-36" edge="1">
          <mxGeometry relative="1" as="geometry" />
        </mxCell>
        <mxCell id="rfokzn5VtcdykwJG7TU8-56" style="edgeStyle=none;curved=1;rounded=0;orthogonalLoop=1;jettySize=auto;html=1;fontSize=12;startSize=8;endSize=8;" parent="1" source="rfokzn5VtcdykwJG7TU8-5" target="rfokzn5VtcdykwJG7TU8-43" edge="1">
          <mxGeometry relative="1" as="geometry" />
        </mxCell>
        <mxCell id="rfokzn5VtcdykwJG7TU8-57" style="edgeStyle=none;curved=1;rounded=0;orthogonalLoop=1;jettySize=auto;html=1;entryX=0.75;entryY=0;entryDx=0;entryDy=0;fontSize=12;startSize=8;endSize=8;" parent="1" source="rfokzn5VtcdykwJG7TU8-5" target="rfokzn5VtcdykwJG7TU8-44" edge="1">
          <mxGeometry relative="1" as="geometry" />
        </mxCell>
        <mxCell id="rfokzn5VtcdykwJG7TU8-5" value="进入系统主界面" style="rounded=0;whiteSpace=wrap;html=1;" parent="1" vertex="1">
          <mxGeometry x="231.5" y="-81" width="120" height="60" as="geometry" />
        </mxCell>
        <mxCell id="rfokzn5VtcdykwJG7TU8-7" value="提示登录失败，&lt;div&gt;重新输入&lt;/div&gt;" style="rounded=0;whiteSpace=wrap;html=1;" parent="1" vertex="1">
          <mxGeometry x="400" y="-216" width="120" height="60" as="geometry" />
        </mxCell>
        <mxCell id="rfokzn5VtcdykwJG7TU8-11" value="" style="endArrow=none;html=1;rounded=0;fontSize=12;startSize=8;endSize=8;curved=1;" parent="1" target="rfokzn5VtcdykwJG7TU8-7" edge="1">
          <mxGeometry width="50" height="50" relative="1" as="geometry">
            <mxPoint x="461" y="-299" as="sourcePoint" />
            <mxPoint x="425" y="-54" as="targetPoint" />
          </mxGeometry>
        </mxCell>
        <mxCell id="rfokzn5VtcdykwJG7TU8-12" value="" style="endArrow=classic;html=1;rounded=0;fontSize=12;startSize=8;endSize=8;curved=1;entryX=1;entryY=0.5;entryDx=0;entryDy=0;" parent="1" target="rfokzn5VtcdykwJG7TU8-17" edge="1">
          <mxGeometry width="50" height="50" relative="1" as="geometry">
            <mxPoint x="460" y="-299" as="sourcePoint" />
            <mxPoint x="425" y="-54" as="targetPoint" />
          </mxGeometry>
        </mxCell>
        <mxCell id="rfokzn5VtcdykwJG7TU8-21" value="" style="edgeStyle=none;curved=1;rounded=0;orthogonalLoop=1;jettySize=auto;html=1;fontSize=12;startSize=8;endSize=8;" parent="1" source="rfokzn5VtcdykwJG7TU8-13" target="rfokzn5VtcdykwJG7TU8-20" edge="1">
          <mxGeometry relative="1" as="geometry" />
        </mxCell>
        <mxCell id="rfokzn5VtcdykwJG7TU8-13" value="添加员工" style="rounded=0;whiteSpace=wrap;html=1;" parent="1" vertex="1">
          <mxGeometry x="-111.5" y="48" width="95" height="39" as="geometry" />
        </mxCell>
        <mxCell id="rfokzn5VtcdykwJG7TU8-24" value="" style="edgeStyle=none;curved=1;rounded=0;orthogonalLoop=1;jettySize=auto;html=1;fontSize=12;startSize=8;endSize=8;" parent="1" source="rfokzn5VtcdykwJG7TU8-14" target="rfokzn5VtcdykwJG7TU8-23" edge="1">
          <mxGeometry relative="1" as="geometry" />
        </mxCell>
        <mxCell id="rfokzn5VtcdykwJG7TU8-14" value="更新员工" style="rounded=0;whiteSpace=wrap;html=1;" parent="1" vertex="1">
          <mxGeometry x="35" y="48" width="97" height="39" as="geometry" />
        </mxCell>
        <mxCell id="rfokzn5VtcdykwJG7TU8-32" value="" style="edgeStyle=none;curved=1;rounded=0;orthogonalLoop=1;jettySize=auto;html=1;fontSize=12;startSize=8;endSize=8;" parent="1" source="rfokzn5VtcdykwJG7TU8-15" target="rfokzn5VtcdykwJG7TU8-31" edge="1">
          <mxGeometry relative="1" as="geometry" />
        </mxCell>
        <mxCell id="rfokzn5VtcdykwJG7TU8-15" value="删除员工" style="rounded=0;whiteSpace=wrap;html=1;" parent="1" vertex="1">
          <mxGeometry x="179" y="49" width="89" height="38" as="geometry" />
        </mxCell>
        <mxCell id="rfokzn5VtcdykwJG7TU8-16" value="数据库" style="strokeWidth=2;html=1;shape=mxgraph.flowchart.database;whiteSpace=wrap;" parent="1" vertex="1">
          <mxGeometry x="134" y="391" width="60" height="60" as="geometry" />
        </mxCell>
        <mxCell id="rfokzn5VtcdykwJG7TU8-19" value="" style="edgeStyle=none;curved=1;rounded=0;orthogonalLoop=1;jettySize=auto;html=1;fontSize=12;startSize=8;endSize=8;" parent="1" source="rfokzn5VtcdykwJG7TU8-17" target="rfokzn5VtcdykwJG7TU8-2" edge="1">
          <mxGeometry relative="1" as="geometry" />
        </mxCell>
        <mxCell id="rfokzn5VtcdykwJG7TU8-17" value="登录界面" style="rounded=0;whiteSpace=wrap;html=1;" parent="1" vertex="1">
          <mxGeometry x="234" y="-325" width="120" height="51" as="geometry" />
        </mxCell>
        <mxCell id="rfokzn5VtcdykwJG7TU8-22" style="edgeStyle=none;curved=1;rounded=0;orthogonalLoop=1;jettySize=auto;html=1;fontSize=12;startSize=8;endSize=8;" parent="1" source="rfokzn5VtcdykwJG7TU8-20" target="rfokzn5VtcdykwJG7TU8-16" edge="1">
          <mxGeometry relative="1" as="geometry" />
        </mxCell>
        <mxCell id="rfokzn5VtcdykwJG7TU8-20" value="&lt;div style=&quot;white-space-collapse: preserve;&quot; data-line=&quot;true&quot; data-line-index=&quot;0&quot; data-zone-id=&quot;0&quot;&gt;输入员工信息（姓名、年龄、部门、编号）&lt;/div&gt;" style="whiteSpace=wrap;html=1;rounded=0;" parent="1" vertex="1">
          <mxGeometry x="-124" y="198" width="120" height="60" as="geometry" />
        </mxCell>
        <mxCell id="rfokzn5VtcdykwJG7TU8-28" value="" style="edgeStyle=none;curved=1;rounded=0;orthogonalLoop=1;jettySize=auto;html=1;fontSize=12;startSize=8;endSize=8;" parent="1" source="rfokzn5VtcdykwJG7TU8-23" target="rfokzn5VtcdykwJG7TU8-27" edge="1">
          <mxGeometry relative="1" as="geometry" />
        </mxCell>
        <mxCell id="rfokzn5VtcdykwJG7TU8-23" value="&lt;div style=&quot;white-space-collapse: preserve;&quot; data-line=&quot;true&quot; data-line-index=&quot;0&quot; data-zone-id=&quot;0&quot;&gt;输入要更新的员工编号&lt;/div&gt;" style="whiteSpace=wrap;html=1;rounded=0;" parent="1" vertex="1">
          <mxGeometry x="24" y="110" width="120" height="60" as="geometry" />
        </mxCell>
        <mxCell id="rfokzn5VtcdykwJG7TU8-30" style="edgeStyle=none;curved=1;rounded=0;orthogonalLoop=1;jettySize=auto;html=1;fontSize=12;startSize=8;endSize=8;" parent="1" source="rfokzn5VtcdykwJG7TU8-27" target="rfokzn5VtcdykwJG7TU8-16" edge="1">
          <mxGeometry relative="1" as="geometry" />
        </mxCell>
        <mxCell id="rfokzn5VtcdykwJG7TU8-27" value="&lt;div style=&quot;white-space-collapse: preserve;&quot; data-line=&quot;true&quot; data-line-index=&quot;0&quot; data-zone-id=&quot;0&quot;&gt;将更新信息存入数据库&lt;/div&gt;" style="whiteSpace=wrap;html=1;rounded=0;" parent="1" vertex="1">
          <mxGeometry x="23.5" y="193" width="120" height="60" as="geometry" />
        </mxCell>
        <mxCell id="rfokzn5VtcdykwJG7TU8-34" value="" style="edgeStyle=none;curved=1;rounded=0;orthogonalLoop=1;jettySize=auto;html=1;fontSize=12;startSize=8;endSize=8;" parent="1" source="rfokzn5VtcdykwJG7TU8-31" target="rfokzn5VtcdykwJG7TU8-33" edge="1">
          <mxGeometry relative="1" as="geometry" />
        </mxCell>
        <mxCell id="rfokzn5VtcdykwJG7TU8-31" value="&lt;div style=&quot;white-space-collapse: preserve;&quot; data-line=&quot;true&quot; data-line-index=&quot;0&quot; data-zone-id=&quot;0&quot;&gt;输入要删除的员工编号&lt;/div&gt;" style="whiteSpace=wrap;html=1;rounded=0;" parent="1" vertex="1">
          <mxGeometry x="161" y="110" width="120" height="60" as="geometry" />
        </mxCell>
        <mxCell id="rfokzn5VtcdykwJG7TU8-35" style="edgeStyle=none;curved=1;rounded=0;orthogonalLoop=1;jettySize=auto;html=1;fontSize=12;startSize=8;endSize=8;" parent="1" source="rfokzn5VtcdykwJG7TU8-33" target="rfokzn5VtcdykwJG7TU8-16" edge="1">
          <mxGeometry relative="1" as="geometry" />
        </mxCell>
        <mxCell id="rfokzn5VtcdykwJG7TU8-33" value="&lt;div style=&quot;white-space-collapse: preserve;&quot; data-line=&quot;true&quot; data-line-index=&quot;0&quot; data-zone-id=&quot;0&quot;&gt;从数据库删除员工信息&lt;/div&gt;" style="whiteSpace=wrap;html=1;rounded=0;" parent="1" vertex="1">
          <mxGeometry x="161" y="193" width="120" height="60" as="geometry" />
        </mxCell>
        <mxCell id="rfokzn5VtcdykwJG7TU8-38" value="" style="edgeStyle=none;curved=1;rounded=0;orthogonalLoop=1;jettySize=auto;html=1;fontSize=12;startSize=8;endSize=8;" parent="1" source="rfokzn5VtcdykwJG7TU8-36" target="rfokzn5VtcdykwJG7TU8-37" edge="1">
          <mxGeometry relative="1" as="geometry" />
        </mxCell>
        <mxCell id="rfokzn5VtcdykwJG7TU8-36" value="&lt;div style=&quot;white-space-collapse: preserve;&quot; data-line=&quot;true&quot; data-line-index=&quot;0&quot; data-zone-id=&quot;0&quot;&gt;查找员工&lt;/div&gt;" style="rounded=0;whiteSpace=wrap;html=1;" parent="1" vertex="1">
          <mxGeometry x="311" y="49" width="104" height="37" as="geometry" />
        </mxCell>
        <mxCell id="rfokzn5VtcdykwJG7TU8-40" value="" style="edgeStyle=none;curved=1;rounded=0;orthogonalLoop=1;jettySize=auto;html=1;fontSize=12;startSize=8;endSize=8;" parent="1" source="rfokzn5VtcdykwJG7TU8-37" target="rfokzn5VtcdykwJG7TU8-39" edge="1">
          <mxGeometry relative="1" as="geometry" />
        </mxCell>
        <mxCell id="rfokzn5VtcdykwJG7TU8-37" value="输入要查找的员工id/姓名" style="whiteSpace=wrap;html=1;rounded=0;" parent="1" vertex="1">
          <mxGeometry x="303" y="110" width="120" height="60" as="geometry" />
        </mxCell>
        <mxCell id="rfokzn5VtcdykwJG7TU8-41" style="edgeStyle=none;curved=1;rounded=0;orthogonalLoop=1;jettySize=auto;html=1;fontSize=12;startSize=8;endSize=8;" parent="1" source="rfokzn5VtcdykwJG7TU8-39" target="rfokzn5VtcdykwJG7TU8-16" edge="1">
          <mxGeometry relative="1" as="geometry" />
        </mxCell>
        <mxCell id="rfokzn5VtcdykwJG7TU8-39" value="&lt;div style=&quot;white-space-collapse: preserve;&quot; data-line=&quot;true&quot; data-line-index=&quot;0&quot; data-zone-id=&quot;0&quot;&gt;根据条件向数据库查询员工信息&lt;/div&gt;" style="whiteSpace=wrap;html=1;rounded=0;" parent="1" vertex="1">
          <mxGeometry x="303" y="193" width="120" height="60" as="geometry" />
        </mxCell>
        <mxCell id="rfokzn5VtcdykwJG7TU8-46" value="" style="edgeStyle=none;curved=1;rounded=0;orthogonalLoop=1;jettySize=auto;html=1;fontSize=12;startSize=8;endSize=8;" parent="1" source="rfokzn5VtcdykwJG7TU8-43" target="rfokzn5VtcdykwJG7TU8-45" edge="1">
          <mxGeometry relative="1" as="geometry" />
        </mxCell>
        <mxCell id="rfokzn5VtcdykwJG7TU8-43" value="查看部门饼状图" style="rounded=0;whiteSpace=wrap;html=1;" parent="1" vertex="1">
          <mxGeometry x="452" y="44" width="120" height="60" as="geometry" />
        </mxCell>
        <mxCell id="rfokzn5VtcdykwJG7TU8-48" value="" style="edgeStyle=none;curved=1;rounded=0;orthogonalLoop=1;jettySize=auto;html=1;fontSize=12;startSize=8;endSize=8;" parent="1" source="rfokzn5VtcdykwJG7TU8-44" target="rfokzn5VtcdykwJG7TU8-47" edge="1">
          <mxGeometry relative="1" as="geometry" />
        </mxCell>
        <mxCell id="rfokzn5VtcdykwJG7TU8-44" value="查看年龄段分布图" style="rounded=0;whiteSpace=wrap;html=1;" parent="1" vertex="1">
          <mxGeometry x="593" y="44" width="120" height="60" as="geometry" />
        </mxCell>
        <mxCell id="rfokzn5VtcdykwJG7TU8-50" value="" style="edgeStyle=none;curved=1;rounded=0;orthogonalLoop=1;jettySize=auto;html=1;fontSize=12;startSize=8;endSize=8;" parent="1" source="rfokzn5VtcdykwJG7TU8-45" target="rfokzn5VtcdykwJG7TU8-49" edge="1">
          <mxGeometry relative="1" as="geometry" />
        </mxCell>
        <mxCell id="rfokzn5VtcdykwJG7TU8-45" value="&lt;div style=&quot;white-space-collapse: preserve;&quot; data-line=&quot;true&quot; data-line-index=&quot;0&quot; data-zone-id=&quot;0&quot;&gt;从数据库获取员工部门信息&lt;/div&gt;" style="whiteSpace=wrap;html=1;rounded=0;" parent="1" vertex="1">
          <mxGeometry x="452" y="125" width="120" height="60" as="geometry" />
        </mxCell>
        <mxCell id="rfokzn5VtcdykwJG7TU8-51" style="edgeStyle=none;curved=1;rounded=0;orthogonalLoop=1;jettySize=auto;html=1;fontSize=12;startSize=8;endSize=8;" parent="1" source="rfokzn5VtcdykwJG7TU8-47" target="rfokzn5VtcdykwJG7TU8-49" edge="1">
          <mxGeometry relative="1" as="geometry" />
        </mxCell>
        <mxCell id="rfokzn5VtcdykwJG7TU8-47" value="&lt;div style=&quot;white-space-collapse: preserve;&quot; data-line=&quot;true&quot; data-line-index=&quot;0&quot; data-zone-id=&quot;0&quot;&gt;从数据库获取员工年龄信息&lt;/div&gt;" style="whiteSpace=wrap;html=1;rounded=0;" parent="1" vertex="1">
          <mxGeometry x="596" y="125" width="120" height="60" as="geometry" />
        </mxCell>
        <mxCell id="rfokzn5VtcdykwJG7TU8-49" value="显示图表" style="whiteSpace=wrap;html=1;rounded=0;" parent="1" vertex="1">
          <mxGeometry x="516" y="304" width="120" height="60" as="geometry" />
        </mxCell>
        <mxCell id="mPOOD1yDkALpKtG9urt1-1" value="员工信息" style="rounded=0;whiteSpace=wrap;html=1;" vertex="1" parent="1">
          <mxGeometry x="44" y="662" width="106" height="42" as="geometry" />
        </mxCell>
        <mxCell id="mPOOD1yDkALpKtG9urt1-8" value="员工号" style="ellipse;whiteSpace=wrap;html=1;rounded=0;" vertex="1" parent="1">
          <mxGeometry x="-36" y="736" width="80" height="51" as="geometry" />
        </mxCell>
        <mxCell id="mPOOD1yDkALpKtG9urt1-10" value="" style="endArrow=none;html=1;rounded=0;fontSize=12;startSize=8;endSize=8;curved=1;entryX=0.439;entryY=1.022;entryDx=0;entryDy=0;entryPerimeter=0;" edge="1" parent="1" source="mPOOD1yDkALpKtG9urt1-8" target="mPOOD1yDkALpKtG9urt1-1">
          <mxGeometry width="50" height="50" relative="1" as="geometry">
            <mxPoint x="166" y="847" as="sourcePoint" />
            <mxPoint x="216" y="797" as="targetPoint" />
          </mxGeometry>
        </mxCell>
        <mxCell id="mPOOD1yDkALpKtG9urt1-11" value="姓名" style="ellipse;whiteSpace=wrap;html=1;" vertex="1" parent="1">
          <mxGeometry x="17" y="787" width="90" height="48" as="geometry" />
        </mxCell>
        <mxCell id="mPOOD1yDkALpKtG9urt1-12" value="" style="endArrow=none;html=1;rounded=0;fontSize=12;startSize=8;endSize=8;curved=1;" edge="1" parent="1" source="mPOOD1yDkALpKtG9urt1-1" target="mPOOD1yDkALpKtG9urt1-11">
          <mxGeometry width="50" height="50" relative="1" as="geometry">
            <mxPoint x="166" y="847" as="sourcePoint" />
            <mxPoint x="216" y="797" as="targetPoint" />
          </mxGeometry>
        </mxCell>
        <mxCell id="mPOOD1yDkALpKtG9urt1-13" value="年龄" style="ellipse;whiteSpace=wrap;html=1;" vertex="1" parent="1">
          <mxGeometry x="120" y="787" width="94" height="47" as="geometry" />
        </mxCell>
        <mxCell id="mPOOD1yDkALpKtG9urt1-14" value="" style="endArrow=none;html=1;rounded=0;fontSize=12;startSize=8;endSize=8;curved=1;" edge="1" parent="1" target="mPOOD1yDkALpKtG9urt1-13">
          <mxGeometry width="50" height="50" relative="1" as="geometry">
            <mxPoint x="91" y="704" as="sourcePoint" />
            <mxPoint x="216" y="797" as="targetPoint" />
          </mxGeometry>
        </mxCell>
        <mxCell id="mPOOD1yDkALpKtG9urt1-15" value="部门" style="ellipse;whiteSpace=wrap;html=1;" vertex="1" parent="1">
          <mxGeometry x="161" y="729" width="89" height="49" as="geometry" />
        </mxCell>
        <mxCell id="mPOOD1yDkALpKtG9urt1-16" value="" style="endArrow=none;html=1;rounded=0;fontSize=12;startSize=8;endSize=8;curved=1;" edge="1" parent="1" target="mPOOD1yDkALpKtG9urt1-15">
          <mxGeometry width="50" height="50" relative="1" as="geometry">
            <mxPoint x="91" y="705" as="sourcePoint" />
            <mxPoint x="216" y="797" as="targetPoint" />
          </mxGeometry>
        </mxCell>
        <mxCell id="mPOOD1yDkALpKtG9urt1-17" value="管理员信息" style="rounded=0;whiteSpace=wrap;html=1;" vertex="1" parent="1">
          <mxGeometry x="398" y="666" width="120" height="41" as="geometry" />
        </mxCell>
        <mxCell id="mPOOD1yDkALpKtG9urt1-18" value="" style="endArrow=none;html=1;rounded=0;fontSize=12;startSize=8;endSize=8;curved=1;entryX=0.5;entryY=1;entryDx=0;entryDy=0;" edge="1" parent="1" source="mPOOD1yDkALpKtG9urt1-19" target="mPOOD1yDkALpKtG9urt1-17">
          <mxGeometry width="50" height="50" relative="1" as="geometry">
            <mxPoint x="403" y="747" as="sourcePoint" />
            <mxPoint x="449" y="699" as="targetPoint" />
          </mxGeometry>
        </mxCell>
        <mxCell id="mPOOD1yDkALpKtG9urt1-19" value="管理员号" style="ellipse;whiteSpace=wrap;html=1;" vertex="1" parent="1">
          <mxGeometry x="303" y="741" width="97" height="44" as="geometry" />
        </mxCell>
        <mxCell id="mPOOD1yDkALpKtG9urt1-20" value="用户名" style="ellipse;whiteSpace=wrap;html=1;" vertex="1" parent="1">
          <mxGeometry x="354" y="785" width="100" height="48" as="geometry" />
        </mxCell>
        <mxCell id="mPOOD1yDkALpKtG9urt1-21" value="" style="endArrow=none;html=1;rounded=0;fontSize=12;startSize=8;endSize=8;curved=1;" edge="1" parent="1" source="mPOOD1yDkALpKtG9urt1-20">
          <mxGeometry width="50" height="50" relative="1" as="geometry">
            <mxPoint x="485" y="609" as="sourcePoint" />
            <mxPoint x="458" y="705" as="targetPoint" />
          </mxGeometry>
        </mxCell>
        <mxCell id="mPOOD1yDkALpKtG9urt1-22" value="密码" style="ellipse;whiteSpace=wrap;html=1;" vertex="1" parent="1">
          <mxGeometry x="462.5" y="785" width="96" height="46" as="geometry" />
        </mxCell>
        <mxCell id="mPOOD1yDkALpKtG9urt1-23" value="" style="endArrow=none;html=1;rounded=0;fontSize=12;startSize=8;endSize=8;curved=1;entryX=0.5;entryY=1;entryDx=0;entryDy=0;" edge="1" parent="1" source="mPOOD1yDkALpKtG9urt1-22" target="mPOOD1yDkALpKtG9urt1-17">
          <mxGeometry width="50" height="50" relative="1" as="geometry">
            <mxPoint x="485" y="609" as="sourcePoint" />
            <mxPoint x="535" y="559" as="targetPoint" />
          </mxGeometry>
        </mxCell>
        <mxCell id="mPOOD1yDkALpKtG9urt1-24" value="注册时间" style="ellipse;whiteSpace=wrap;html=1;" vertex="1" parent="1">
          <mxGeometry x="518" y="736" width="87" height="44" as="geometry" />
        </mxCell>
        <mxCell id="mPOOD1yDkALpKtG9urt1-25" value="" style="endArrow=none;html=1;rounded=0;fontSize=12;startSize=8;endSize=8;curved=1;entryX=0.5;entryY=1;entryDx=0;entryDy=0;" edge="1" parent="1" source="mPOOD1yDkALpKtG9urt1-24" target="mPOOD1yDkALpKtG9urt1-17">
          <mxGeometry width="50" height="50" relative="1" as="geometry">
            <mxPoint x="551" y="776" as="sourcePoint" />
            <mxPoint x="601" y="726" as="targetPoint" />
          </mxGeometry>
        </mxCell>
        <mxCell id="mPOOD1yDkALpKtG9urt1-26" style="edgeStyle=none;curved=1;rounded=0;orthogonalLoop=1;jettySize=auto;html=1;exitX=1;exitY=0.5;exitDx=0;exitDy=0;fontSize=12;startSize=8;endSize=8;" edge="1" parent="1" source="mPOOD1yDkALpKtG9urt1-24" target="mPOOD1yDkALpKtG9urt1-24">
          <mxGeometry relative="1" as="geometry" />
        </mxCell>
        <mxCell id="mPOOD1yDkALpKtG9urt1-27" value="管理" style="rhombus;whiteSpace=wrap;html=1;" vertex="1" parent="1">
          <mxGeometry x="231.5" y="662" width="80" height="45" as="geometry" />
        </mxCell>
        <mxCell id="mPOOD1yDkALpKtG9urt1-29" value="" style="endArrow=none;html=1;rounded=0;fontSize=12;startSize=8;endSize=8;curved=1;exitX=0;exitY=0.5;exitDx=0;exitDy=0;" edge="1" parent="1" source="mPOOD1yDkALpKtG9urt1-27" target="mPOOD1yDkALpKtG9urt1-1">
          <mxGeometry width="50" height="50" relative="1" as="geometry">
            <mxPoint x="644" y="878" as="sourcePoint" />
            <mxPoint x="694" y="828" as="targetPoint" />
          </mxGeometry>
        </mxCell>
        <mxCell id="mPOOD1yDkALpKtG9urt1-32" value="" style="endArrow=none;html=1;rounded=0;fontSize=12;startSize=8;endSize=8;curved=1;exitX=1;exitY=0.5;exitDx=0;exitDy=0;entryX=0;entryY=0.5;entryDx=0;entryDy=0;" edge="1" parent="1" source="mPOOD1yDkALpKtG9urt1-27" target="mPOOD1yDkALpKtG9urt1-17">
          <mxGeometry width="50" height="50" relative="1" as="geometry">
            <mxPoint x="644" y="878" as="sourcePoint" />
            <mxPoint x="694" y="828" as="targetPoint" />
          </mxGeometry>
        </mxCell>
        <mxCell id="mPOOD1yDkALpKtG9urt1-33" value="1" style="text;html=1;align=center;verticalAlign=middle;resizable=0;points=[];autosize=1;strokeColor=none;fillColor=none;fontSize=16;" vertex="1" parent="1">
          <mxGeometry x="338" y="662" width="27" height="31" as="geometry" />
        </mxCell>
        <mxCell id="mPOOD1yDkALpKtG9urt1-34" value="n" style="text;html=1;align=center;verticalAlign=middle;resizable=0;points=[];autosize=1;strokeColor=none;fillColor=none;fontSize=16;" vertex="1" parent="1">
          <mxGeometry x="180.5" y="659.5" width="27" height="31" as="geometry" />
        </mxCell>
      </root>
    </mxGraphModel>
  </diagram>
</mxfile>
